<svg xmlns="http://www.w3.org/2000/svg" width="600" height="400" viewBox="0 0 600 400"><rect width="100%" height="100%" fill="#DDDDDD"/><path fill="#999999" d="M151.44 142.255v47.87h4.98q3 0 4.98-.83 1.97-.83 3.4-2.65l31.52-39.89q1.97-2.53 4.14-3.52 2.18-.98 5.49-.98h18.33l-38.47 47.48q-3.4 4.34-7.03 6.16 2.61.94 4.7 2.64 2.09 1.7 3.99 4.47l39.66 53.48H208.4q-3.79 0-5.64-1.07-1.86-1.06-3.13-3.12l-32.31-42.18q-1.5-2.14-3.47-3.01-1.98-.86-5.69-.86h-6.72v50.24h-21.25v-114.23h21.25Zm134.3 33.18h19.52v81.05h-11.93q-3.87 0-4.9-3.56l-1.34-6.47q-4.98 5.05-10.98 8.17-6.01 3.12-14.14 3.12-6.64 0-11.74-2.25-5.09-2.25-8.57-6.36-3.47-4.11-5.25-9.75-1.78-5.65-1.78-12.45v-51.5h19.51v51.5q0 7.43 3.44 11.5t10.31 4.07q5.06 0 9.48-2.25 4.42-2.26 8.37-6.21v-58.61Zm96.46 0h15.41l-32.15 81.05h-17.7l-32.15-81.05h16.11q2.21 0 3.68 1.02 1.46 1.03 1.93 2.61l15.64 43.29q1.27 3.79 2.22 7.43.94 3.63 1.65 7.27.79-3.64 1.74-7.27.95-3.64 2.29-7.43l15.96-43.29q.55-1.58 1.98-2.61 1.42-1.02 3.39-1.02Zm68.58 60.12v-13.67q-8.46.39-14.22 1.46-5.77 1.07-9.25 2.73-3.47 1.65-4.97 3.87-1.51 2.21-1.51 4.81 0 5.14 3.05 7.35 3.04 2.21 7.94 2.21 6 0 10.38-2.17 4.39-2.17 8.58-6.59Zm-41.24-42.59-3.48-6.24q13.98-12.8 33.66-12.8 7.11 0 12.71 2.34 5.61 2.33 9.48 6.47 3.88 4.15 5.89 9.92t2.01 12.64v51.19h-8.84q-2.77 0-4.27-.83-1.5-.83-2.37-3.36l-1.74-5.84q-3.08 2.76-6 4.86-2.92 2.09-6.08 3.51t-6.76 2.17q-3.59.75-7.94.75-5.13 0-9.48-1.38-4.34-1.38-7.5-4.15-3.16-2.76-4.9-6.87-1.74-4.11-1.74-9.56 0-3.08 1.03-6.12 1.02-3.04 3.36-5.81 2.33-2.76 6.04-5.21t9.12-4.27q5.41-1.81 12.6-2.96 7.19-1.15 16.44-1.38v-4.74q0-8.14-3.48-12.05t-10.03-3.91q-4.74 0-7.86 1.11-3.12 1.1-5.49 2.48-2.37 1.39-4.31 2.49-1.94 1.11-4.31 1.11-2.05 0-3.47-1.07-1.42-1.06-2.29-2.49Z"/></svg>